<?xml version="1.0" encoding="utf-8"?>
<!-- Generator: Adobe Illustrator 18.0.0, SVG Export Plug-In . SVG Version: 6.00 Build 0)  -->
<!DOCTYPE svg PUBLIC "-//W3C//DTD SVG 1.1//EN" "http://www.w3.org/Graphics/SVG/1.1/DTD/svg11.dtd">
<svg version="1.1" id="Layer_1" xmlns="http://www.w3.org/2000/svg" xmlns:xlink="http://www.w3.org/1999/xlink" x="0px" y="0px"
	 viewBox="0 0 518 1393" enable-background="new 0 0 518 1393" xml:space="preserve">
<g>
	<g>
		<path fill="#F7DC78" d="M394,1076.4V0H125v1076.4H0L259,1393l259-316.6H394z M276.3,1141.4c-2,5.2-4.2,9.8-6.7,13.9
			c-2.5,4.1-5.4,7.5-8.8,10.4c-3.4,2.9-7.4,5-12,6.5c-4.6,1.5-10,2.2-16.3,2.2c-3.1,0-6.2-0.2-9.5-0.6c-3.3-0.4-6.1-0.9-8.5-1.6
			l3.6-27.6c1.6,0.5,3.4,1,5.3,1.3c1.9,0.3,3.7,0.5,5.3,0.5c5.1,0,8.7-1.2,11-3.5c2.3-2.3,4.2-5.6,5.8-9.9l3.2-8.2l-41.6-98h36.4
			l22.2,64h0.6l19.8-64h34.8L276.3,1141.4z"/>
	</g>
</g>
<path display="none" d="M320.9,1026.8h-34.8l-19.8,64h-0.6l-22.2-64h-36.4l41.6,98l-3.2,8.2c-1.6,4.3-3.5,7.6-5.8,9.9
	c-2.3,2.3-5.9,3.5-11,3.5c-1.6,0-3.4-0.2-5.3-0.5c-1.9-0.3-3.7-0.8-5.3-1.3l-3.6,27.6c2.4,0.7,5.2,1.2,8.5,1.6
	c3.3,0.4,6.4,0.6,9.5,0.6c6.3,0,11.7-0.7,16.3-2.2c4.6-1.5,8.6-3.6,12-6.5c3.4-2.9,6.3-6.3,8.8-10.4c2.5-4.1,4.7-8.7,6.7-13.9
	L320.9,1026.8z"/>
</svg>
